<svg id="SvgjsSvg1023" xmlns="http://www.w3.org/2000/svg" version="1.1" xmlns:xlink="http://www.w3.org/1999/xlink" xmlns:svgjs="http://svgjs.com/svgjs" width="187" height="50" viewBox="0 0 187 50"><title>Page 1</title><desc>Created with Avocode.</desc><defs id="SvgjsDefs1024"></defs><path id="SvgjsPath1025" d="M1144.02 471.29L1149.08 471.29C1149.11 471.29 1149.11 471.29 1149.11 471.26000000000005L1149.11 450.02000000000004C1149.11 450.00000000000006 1149.11 450.00000000000006 1149.08 450.00000000000006L1144.02 450.00000000000006C1144 450.00000000000006 1144 450.00000000000006 1144 450.02000000000004L1144 471.26000000000005C1144 471.29 1144 471.29 1144.02 471.29 " fill="#ffffff" fill-opacity="1" transform="matrix(1,0,0,1,-1059,-432)"></path><path id="SvgjsPath1026" d="M1184.32 454C1181.1399999999999 454 1179.3799999999999 454.93 1177.1299999999999 456.79C1177.1299999999999 456.79 1177.11 456.76000000000005 1177.11 456.79C1177.11 456.62 1177.1799999999998 455.49 1176.9599999999998 455.49C1175.5699999999997 455.49 1173.4899999999998 455.44 1171.9999999999998 455.49L1171.9999999999998 471.18C1173.9299999999998 471.2 1177.1099999999997 471.18 1177.1099999999997 471.18C1177.1299999999997 468.14 1177.1299999999997 464.72 1177.1299999999997 461.49C1177.3299999999997 460.12 1178.6999999999996 458.06 1182.2099999999996 458.06C1184.7099999999996 457.87 1185.2899999999995 459.82 1185.2899999999995 462.03000000000003L1185.2899999999995 471.18L1190.3799999999994 471.18C1190.3799999999994 469.81 1190.9099999999994 461.54 1190.1799999999994 458.40000000000003C1189.2999999999993 454.49 1185.4399999999994 454.05 1184.3199999999995 454.00000000000006 " fill="#ffffff" fill-opacity="1" transform="matrix(1,0,0,1,-1059,-432)"></path><path id="SvgjsPath1027" d="M1137.08 462.36C1137.08 464.96000000000004 1134.8799999999999 467.11 1132.1399999999999 467.11C1129.4499999999998 467.11 1127.2499999999998 464.96000000000004 1127.2499999999998 462.36C1127.2499999999998 459.72 1129.4499999999998 457.62 1132.1399999999999 457.62C1134.8799999999999 457.62 1137.08 459.72 1137.08 462.36ZM1122 470.66L1127.23 470.66L1127.23 469.21000000000004C1128.84 470.24 1130.8 470.83000000000004 1132.92 470.83000000000004C1138.23 470.83000000000004 1142.5500000000002 466.96000000000004 1142.5500000000002 462.24000000000007C1142.5500000000002 457.52000000000004 1138.2300000000002 453.6500000000001 1132.92 453.6500000000001C1130.8000000000002 453.6500000000001 1128.8400000000001 454.2600000000001 1127.23 455.2900000000001L1127.23 449.4200000000001L1122 448.00000000000006Z " fill="#ffffff" fill-opacity="1" transform="matrix(1,0,0,1,-1059,-432)"></path><path id="SvgjsPath1028" d="M1196.52 462.36C1196.52 464.96000000000004 1198.72 467.11 1201.41 467.11C1204.15 467.11 1206.3500000000001 464.96000000000004 1206.3500000000001 462.36C1206.3500000000001 459.72 1204.15 457.62 1201.41 457.62C1198.72 457.62 1196.52 459.72 1196.52 462.36ZM1211.6 470.66L1206.2199999999998 470.66L1206.2499999999998 469.24C1204.6599999999999 470.24 1202.7099999999998 470.83 1200.6299999999999 470.83C1195.33 470.83 1190.9999999999998 466.96 1190.9999999999998 462.24C1190.9999999999998 457.52 1195.3299999999997 453.65000000000003 1200.6299999999999 453.65000000000003C1202.7499999999998 453.65000000000003 1204.7099999999998 454.29 1206.3 455.32000000000005L1206.32 449.4200000000001L1211.6 448.00000000000006Z " fill="#ffffff" fill-opacity="1" transform="matrix(1,0,0,1,-1059,-432)"></path><path id="SvgjsPath1029" d="M1218.92 460.62C1219.21 458.86 1220.19 457.39 1222.97 457.2C1225.47 457.2 1227.03 458.71 1227.03 460.62ZM1222.41 454.01C1216.1100000000001 454.15999999999997 1212.88 457.42 1213 463.36C1213.52 469.18 1216.74 470.90000000000003 1222.09 471.68C1226.7099999999998 471.85 1229.9599999999998 470.26 1231.06 468.06C1229.87 467.2 1228.37 466.44 1227.2 465.61C1225.91 467.42 1224.76 468.38 1222.8 468.08000000000004C1219.3799999999999 467.57000000000005 1218.82 465.93000000000006 1218.7 464.00000000000006C1223.27 464.00000000000006 1228.28 463.9700000000001 1232.82 463.9700000000001C1232.77 457.9100000000001 1230.3999999999999 453.7200000000001 1222.4099999999999 454.0100000000001Z " fill="#ffffff" fill-opacity="1" transform="matrix(1,0,0,1,-1059,-432)"></path><path id="SvgjsPath1030" d="M1156.92 460.62C1157.21 458.86 1158.19 457.39 1160.97 457.2C1163.47 457.2 1165.03 458.71 1165.03 460.62ZM1160.41 454.01C1154.1100000000001 454.15999999999997 1150.88 457.42 1151 463.36C1151.52 469.18 1154.74 470.90000000000003 1160.09 471.68C1164.7099999999998 471.85 1167.9599999999998 470.26 1169.06 468.06C1167.82 467.25 1166.4199999999998 466.4 1165.2 465.61C1163.91 467.42 1162.76 468.38 1160.8 468.08000000000004C1157.3799999999999 467.57000000000005 1156.82 465.93000000000006 1156.7 464.00000000000006C1161.27 464.00000000000006 1166.28 463.9700000000001 1170.82 463.9700000000001C1170.77 457.9100000000001 1168.3999999999999 453.7200000000001 1160.4099999999999 454.0100000000001Z " fill="#ffffff" fill-opacity="1" transform="matrix(1,0,0,1,-1059,-432)"></path><path id="SvgjsPath1031" d="M1234.15 470.69L1238.99 470.69C1239.08 470.69 1239.13 470.69 1239.13 470.64L1239.13 461.02C1240.2800000000002 458.75 1242.21 458.26 1245.0700000000002 458.38L1245.0500000000002 454C1241.7000000000003 454.12 1240.7200000000003 454.42 1239.13 456.15L1239.13 454.97999999999996C1239.13 454.92999999999995 1239.0800000000002 454.92999999999995 1238.99 454.92999999999995L1234.15 454.92999999999995C1234.0500000000002 454.92999999999995 1234 454.92999999999995 1234 454.97999999999996L1234 470.64C1234 470.69 1234.05 470.69 1234.15 470.69 " fill="#ffffff" fill-opacity="1" transform="matrix(1,0,0,1,-1059,-432)"></path><path id="SvgjsPath1032" d="M1111.08 460.77C1111.08 467.18 1105.27 472.37 1098.1799999999998 472.37C1091.0499999999997 472.37 1085.2799999999997 467.18 1085.2799999999997 460.77C1085.2799999999997 454.40999999999997 1091.0499999999997 449.16999999999996 1098.1799999999998 449.16999999999996C1105.2699999999998 449.16999999999996 1111.08 454.40999999999997 1111.08 460.77ZM1070.81 443.17C1066.34 443.52000000000004 1067.05 449.49 1070.35 449.44C1073.3999999999999 449.39 1078.53 449.44 1082.1699999999998 449.44C1076.9499999999998 454.38 1065.2599999999998 461.87 1060.1599999999999 466.74C1058.1799999999998 468.62 1058.3 474.1 1064.04 472.83C1066.22 471.63 1076.04 463.60999999999996 1077.3899999999999 462.24C1078.07 479.29 1097.2299999999998 487.29 1111.62 477.28000000000003C1119.27 471.95000000000005 1121.9099999999999 458.44000000000005 1115.9199999999998 451.79C1111.2099999999998 446.5 1102.6 441.22 1092.32 432.63C1090.6799999999998 431.28 1085.77 431.96999999999997 1087.4299999999998 435.98C1087.4299999999998 435.98 1091.7999999999997 440.36 1095.6599999999999 443.17Z " fill="#ffffff" fill-opacity="1" transform="matrix(1,0,0,1,-1059,-432)"></path><path id="SvgjsPath1033" d="M1099 453C1103.41 453 1107.01 456.39 1107.01 460.55C1107.01 464.71000000000004 1103.41 468.1 1099 468.1C1094.6 468.1 1091 464.71000000000004 1091 460.55C1091 456.39 1094.6 453 1099 453 " fill="#ffffff" fill-opacity="1" transform="matrix(1,0,0,1,-1059,-432)"></path></svg>