<svg id="SvgjsSvg1061" xmlns="http://www.w3.org/2000/svg" version="1.1" xmlns:xlink="http://www.w3.org/1999/xlink" xmlns:svgjs="http://svgjs.com/svgjs" width="56" height="33" viewBox="0 0 56 33"><title>Fill 1</title><desc>Created with Avocode.</desc><defs id="SvgjsDefs1062"></defs><path id="SvgjsPath1063" d="M231 699.48C231 701.9 232.78 703.69 235.29 703.69C237.79 703.69 239.57 701.9000000000001 239.57 699.48C239.57 697.0500000000001 237.79 695.26 235.29 695.26C232.78 695.26 231 697.05 231 699.48ZM257.71 697.85L255.89999999999998 697.85L254.74999999999997 701.46L253.64999999999998 697.85L251.71999999999997 697.85L253.67999999999998 703.5400000000001L255.7 703.5400000000001L256.8 700.1300000000001L257.91 703.5400000000001L259.93 703.5400000000001L261.89 697.85L259.97999999999996 697.85L258.86999999999995 701.48ZM267.56 695.18L265.74 695.18L265.74 703.54L267.56 703.54L267.56 701.3399999999999L267.94 701.3399999999999L269.35 703.54L271.55 703.54L269.43 700.53L271.54 697.85L269.34000000000003 697.85L267.99 699.73L267.56 699.73ZM273.97 695.18L272.15000000000003 695.18L272.15000000000003 703.54L273.97 703.54L273.97 701.3399999999999L274.36 701.3399999999999L275.77000000000004 703.54L277.96000000000004 703.54L275.85 700.53L277.96000000000004 697.85L275.75000000000006 697.85L274.4100000000001 699.73L273.9700000000001 699.73ZM250.71 697.85L249.22 697.85L249.22 696.1800000000001L247.41 696.1800000000001L247.41 697.85L246.79999999999998 697.85L246.79999999999998 699.45L247.41 699.45L247.41 701.35C247.41 702.78 248.1 703.69 249.62 703.69C250.54 703.69 251.11 703.4300000000001 251.65 703.0600000000001L251.02 701.6400000000001C250.73000000000002 701.8100000000001 250.37 702.0000000000001 250.03 702.0000000000001C249.57 702.0000000000001 249.22 701.7800000000001 249.22 701.1200000000001L249.22 699.4500000000002L250.71 699.4500000000002ZM277.93 700.73C277.93 702.5 279.15000000000003 703.69 280.93 703.69C281.99 703.69 282.85 703.35 283.44 702.7600000000001L282.27 701.6700000000001C281.90999999999997 701.9900000000001 281.45 702.1700000000001 281.03 702.1700000000001C280.4 702.1700000000001 279.96 701.8800000000001 279.80999999999995 701.2500000000001L283.66999999999996 701.2500000000001C283.68999999999994 701.1300000000001 283.69999999999993 700.8800000000001 283.69999999999993 700.6900000000002C283.69999999999993 698.9100000000002 282.5399999999999 697.6900000000002 280.8499999999999 697.6900000000002C279.1199999999999 697.6900000000002 277.9299999999999 698.9300000000002 277.9299999999999 700.7300000000001ZM242.35 698.56L242.35 697.8499999999999L240.60999999999999 697.8499999999999L240.60999999999999 703.54L242.42999999999998 703.54L242.42999999999998 700.48C242.42999999999998 699.74 242.84999999999997 699.4 243.34999999999997 699.4C243.90999999999997 699.4 244.24999999999997 699.77 244.24999999999997 700.4499999999999L244.24999999999997 703.54L246.06999999999996 703.54L246.06999999999996 699.8C246.06999999999996 698.4799999999999 245.18999999999997 697.6899999999999 244.04999999999995 697.6899999999999C243.28999999999996 697.6899999999999 242.70999999999995 697.9599999999999 242.34999999999997 698.56ZM237.55 699.48C237.55 700.87 236.61 701.83 235.29000000000002 701.83C233.96 701.83 233.02 700.87 233.02 699.48C233.02 698.08 233.96 697.12 235.29000000000002 697.12C236.61 697.12 237.55 698.08 237.55 699.48ZM262.65 703.54L264.46999999999997 703.54L264.46999999999997 697.8499999999999L262.65 697.8499999999999ZM262.46 696.09C262.46 696.7 262.93 697.1700000000001 263.54999999999995 697.1700000000001C264.15999999999997 697.1700000000001 264.63999999999993 696.7 264.63999999999993 696.09C264.63999999999993 695.48 264.1599999999999 695 263.54999999999995 695C262.92999999999995 695 262.46 695.48 262.46 696.09ZM281.89 700.1L279.81 700.1C279.95 699.5400000000001 280.3 699.23 280.86 699.23C281.39 699.23 281.74 699.54 281.89 700.1ZM284.68 695.18L286.5 695.18L286.5 703.54L284.68 703.54Z " fill="#750d68" fill-opacity="1" transform="matrix(1,0,0,1,-231,-685)"></path><path id="SvgjsPath1064" d="M243.46 691.47L239.94 691.47L239.94 685L238 685L238 693.27L243.46 693.27ZM261.09 687.58L259.33 687.58L259.33 688.19C258.97999999999996 687.75 258.46 687.4200000000001 257.7 687.4200000000001C256.17 687.4200000000001 255.04 688.7400000000001 255.04 690.4200000000001C255.04 692.1 256.17 693.4200000000001 257.69 693.4200000000001C258.46 693.4200000000001 258.98 693.1100000000001 259.33 692.6600000000001L259.33 693.2700000000001L261.09 693.2700000000001ZM243.98 690.46C243.98 692.23 245.19 693.4200000000001 246.98 693.4200000000001C248.03 693.4200000000001 248.89999999999998 693.08 249.48999999999998 692.4900000000001L248.32 691.4000000000001C247.95999999999998 691.7200000000001 247.5 691.9000000000001 247.07 691.9000000000001C246.45 691.9000000000001 246.01 691.6100000000001 245.85999999999999 690.9900000000001L249.72 690.9900000000001C249.74 690.8600000000001 249.75 690.6100000000001 249.75 690.4200000000001C249.75 688.6400000000001 248.59 687.4200000000001 246.9 687.4200000000001C245.17000000000002 687.4200000000001 243.98000000000002 688.6600000000001 243.98000000000002 690.46ZM266.67 690.46C266.67 692.23 267.89000000000004 693.4200000000001 269.67 693.4200000000001C270.73 693.4200000000001 271.59000000000003 693.08 272.18 692.4900000000001L271.01 691.4000000000001C270.65 691.7200000000001 270.19 691.9000000000001 269.77 691.9000000000001C269.14 691.9000000000001 268.7 691.6100000000001 268.54999999999995 690.9900000000001L272.40999999999997 690.9900000000001C272.42999999999995 690.8600000000001 272.43999999999994 690.6100000000001 272.43999999999994 690.4200000000001C272.43999999999994 688.6400000000001 271.2799999999999 687.4200000000001 269.5899999999999 687.4200000000001C267.8599999999999 687.4200000000001 266.6699999999999 688.6600000000001 266.6699999999999 690.46ZM252.47 688.23L252.47 687.58L250.73 687.58L250.73 693.2700000000001L252.54 693.2700000000001L252.54 690.2C252.54 689.49 252.94 689.1700000000001 253.57999999999998 689.1700000000001C253.91 689.1700000000001 254.24999999999997 689.2400000000001 254.49999999999997 689.32L254.65999999999997 687.5100000000001C254.51999999999998 687.4700000000001 254.28999999999996 687.4200000000001 254.02999999999997 687.4200000000001C253.32999999999998 687.4200000000001 252.79999999999998 687.6800000000001 252.46999999999997 688.23ZM264.1 688.23L264.1 687.58L262.36 687.58L262.36 693.2700000000001L264.18 693.2700000000001L264.18 690.2C264.18 689.49 264.57 689.1700000000001 265.21 689.1700000000001C265.53999999999996 689.1700000000001 265.88 689.2400000000001 266.13 689.32L266.29 687.5100000000001C266.16 687.4700000000001 265.92 687.4200000000001 265.66 687.4200000000001C264.96000000000004 687.4200000000001 264.43 687.6800000000001 264.1 688.23ZM259.34 690.42C259.34 691.18 258.84 691.7299999999999 258.11999999999995 691.7299999999999C257.3999999999999 691.7299999999999 256.90999999999997 691.17 256.90999999999997 690.42C256.90999999999997 689.68 257.4 689.12 258.11999999999995 689.12C258.84 689.12 259.34 689.67 259.34 690.42ZM270.63 689.84L268.55 689.84C268.69 689.27 269.04 688.96 269.6 688.96C270.13 688.96 270.48 689.27 270.63 689.84ZM247.93 689.84L245.86 689.84C246 689.27 246.34 688.96 246.91000000000003 688.96C247.43000000000004 688.96 247.79000000000002 689.27 247.93000000000004 689.84ZM276.86 687.42C278 687.42 278.88 688.2199999999999 278.88 689.53L278.88 693.27L277.06 693.27L277.06 690.18C277.06 689.51 276.72 689.13 276.16 689.13C275.66 689.13 275.24 689.47 275.24 690.21L275.24 693.27L273.42 693.27L273.42 687.5799999999999L275.16 687.5799999999999L275.16 688.29C275.52000000000004 687.6899999999999 276.1 687.42 276.86 687.42Z " fill="#00989a" fill-opacity="1" transform="matrix(1,0,0,1,-231,-685)"></path><path id="SvgjsPath1065" d="M267.44 707.51C268.17 707.51 268.67 707.8 269.01 708.21L269.01 705L270.83 705L270.83 713.36L269.07 713.36L269.07 712.75C268.73 713.19 268.21 713.51 267.43 713.51C265.91 713.51 264.79 712.1899999999999 264.79 710.5C264.79 708.83 265.91 707.51 267.44 707.51ZM246.86 710.26L242.94000000000003 710.26L242.94000000000003 713.36L241.00000000000003 713.36L241.00000000000003 705.23L247.14000000000001 705.23L247.14000000000001 706.98L242.94000000000003 706.98L242.94000000000003 708.5L246.86 708.5ZM261.83 707.51C262.96999999999997 707.51 263.84999999999997 708.3 263.84999999999997 709.62L263.84999999999997 713.36L262.03 713.36L262.03 710.27C262.03 709.59 261.7 709.22 261.13 709.22C260.63 709.22 260.21 709.5600000000001 260.21 710.3000000000001L260.21 713.36L258.39 713.36L258.39 707.67L260.14 707.67L260.14 708.38C260.5 707.78 261.07 707.51 261.83 707.51ZM267.87 709.2C267.14 709.2 266.66 709.7700000000001 266.66 710.51C266.66 711.25 267.14000000000004 711.8199999999999 267.87 711.8199999999999C268.58 711.8199999999999 269.09000000000003 711.27 269.09000000000003 710.51C269.09000000000003 709.76 268.58000000000004 709.2 267.87 709.2ZM276.89 708C275.95 707.64 275.36 707.51 274.44 707.51C272.89 707.51 271.98 708.21 271.98 709.42C271.98 710.4399999999999 272.61 711.01 273.98 711.2099999999999L274.32 711.2599999999999C274.96 711.3599999999999 275.21999999999997 711.4499999999999 275.21999999999997 711.6699999999998C275.21999999999997 711.9099999999999 274.97999999999996 712.0399999999998 274.41999999999996 712.0399999999998C273.62999999999994 712.0399999999998 272.97999999999996 711.8399999999998 272.40999999999997 711.4999999999999L271.78 712.9099999999999C272.42999999999995 713.3299999999998 273.42999999999995 713.5099999999999 274.40999999999997 713.5099999999999C276.07 713.5099999999999 277.03999999999996 712.7599999999999 277.03999999999996 711.5099999999999C277.03999999999996 710.5499999999998 276.4 709.9599999999999 275.17999999999995 709.7799999999999L274.75999999999993 709.7199999999999C274.2099999999999 709.6299999999999 273.8499999999999 709.5699999999999 273.8499999999999 709.3299999999999C273.8499999999999 709.1199999999999 274.0299999999999 708.9799999999999 274.50999999999993 708.9799999999999C275.0899999999999 708.9799999999999 275.81999999999994 709.18 276.37999999999994 709.42Z " fill="#750d68" fill-opacity="1" transform="matrix(1,0,0,1,-231,-685)"></path><path id="SvgjsPath1066" d="M255.65 710.27C255.62 710.11 255.59 709.9399999999999 255.54 709.78L257.17 708.8399999999999L257.01 708.55C256.96 708.4399999999999 256.9 708.3399999999999 256.83 708.24L256.65999999999997 707.96L255.04999999999995 708.88C254.97999999999996 708.79 254.90999999999997 708.71 254.82999999999996 708.63C254.78999999999996 708.59 254.73999999999995 708.54 254.68999999999997 708.5L255.60999999999996 706.91L255.31999999999996 706.73C255.22999999999996 706.6700000000001 255.11999999999998 706.61 255.01999999999995 706.5600000000001L254.71999999999994 706.4000000000001L253.80999999999995 707.9700000000001C253.64999999999995 707.9100000000002 253.46999999999994 707.8600000000001 253.29999999999995 707.8300000000002L253.29999999999995 706.0200000000002L252.77999999999994 706.0000000000002L252.26999999999995 706.0200000000002L252.26999999999995 707.8300000000002C252.08999999999995 707.8600000000001 251.91999999999996 707.9100000000002 251.74999999999994 707.9700000000001L250.83999999999995 706.4000000000001L250.53999999999994 706.5600000000001C250.43999999999994 706.61 250.33999999999995 706.6700000000001 250.23999999999992 706.73L249.95999999999992 706.91L250.8799999999999 708.5C250.8299999999999 708.54 250.77999999999992 708.59 250.73999999999992 708.63C250.6599999999999 708.71 250.57999999999993 708.79 250.50999999999993 708.88L248.90999999999994 707.96L248.72999999999993 708.24C248.66999999999993 708.34 248.60999999999993 708.44 248.55999999999995 708.55L248.39999999999995 708.8399999999999L250.02999999999994 709.78C249.97999999999993 709.9399999999999 249.93999999999994 710.11 249.91999999999993 710.27L248.01999999999992 710.27L247.99999999999991 710.61C247.99999999999991 710.66 247.99999999999991 710.72 247.99999999999991 710.78C247.99999999999991 710.8399999999999 247.99999999999991 710.9 247.99999999999991 710.9599999999999L248.01999999999992 711.3L249.94999999999993 711.3C249.97999999999993 711.4499999999999 250.02999999999994 711.5999999999999 250.07999999999993 711.75L248.39999999999992 712.72L248.55999999999992 713.02C248.60999999999993 713.12 248.66999999999993 713.23 248.7299999999999 713.3299999999999L248.9099999999999 713.6099999999999L250.5099999999999 712.6899999999999C250.5399999999999 712.7399999999999 250.5699999999999 712.79 250.58999999999992 712.8499999999999C250.9099999999999 713.43 251.19999999999993 713.9799999999999 251.2199999999999 714.6399999999999L251.2299999999999 714.8999999999999L251.2299999999999 716.5999999999999L251.4099999999999 716.6999999999999C251.9499999999999 717.02 252.36999999999992 717.18 252.7899999999999 717.18C253.1999999999999 717.18 253.61999999999992 717.02 254.1599999999999 716.6999999999999L254.3299999999999 716.5999999999999L254.3299999999999 714.92L254.3399999999999 714.64C254.3599999999999 713.98 254.65999999999988 713.43 254.96999999999989 712.84C254.9999999999999 712.7900000000001 255.0299999999999 712.74 255.0599999999999 712.69L256.6599999999999 713.61L256.8299999999999 713.33C256.8999999999999 713.23 256.9599999999999 713.12 257.00999999999993 713.0200000000001L257.16999999999996 712.7200000000001L255.48999999999995 711.7500000000001C255.53999999999996 711.6000000000001 255.57999999999996 711.4500000000002 255.61999999999995 711.3000000000001L257.54999999999995 711.3000000000001L257.56999999999994 710.7800000000001L257.54999999999995 710.2700000000001ZM254.66 710.68C254.66 711.27 254.37 711.8 254.07 712.37C253.78 712.9 253.48999999999998 713.44 253.37 714.11L252.19 714.11C252.07999999999998 713.44 251.78 712.89 251.49 712.36C251.19 711.8000000000001 250.91 711.27 250.91 710.6800000000001C250.91 710.1800000000001 251.10999999999999 709.71 251.46 709.35C252.16 708.65 253.4 708.65 254.11 709.35C254.46 709.71 254.66000000000003 710.1800000000001 254.66000000000003 710.6800000000001Z " fill="#00989a" fill-opacity="1" transform="matrix(1,0,0,1,-231,-685)"></path></svg>