<svg id="SvgjsSvg1067" xmlns="http://www.w3.org/2000/svg" version="1.1" xmlns:xlink="http://www.w3.org/1999/xlink" xmlns:svgjs="http://svgjs.com/svgjs" width="80" height="47" viewBox="0 0 80 47"><title>Fill 1</title><desc>Created with Avocode.</desc><defs id="SvgjsDefs1068"></defs><path id="SvgjsPath1069" d="M221 389.44C221 392.92 223.55 395.5 227.16 395.5C230.77 395.5 233.32 392.92 233.32 389.44C233.32 385.95 230.76999999999998 383.38 227.16 383.38C223.54999999999998 383.38 221 385.95 221 389.44ZM259.4 387.09L256.78999999999996 387.09L255.12999999999997 392.28999999999996L253.55999999999997 387.09L250.77999999999997 387.09L253.60999999999999 395.28L256.5 395.28L258.08 390.38L259.68 395.28L262.59000000000003 395.28L265.41 387.09L262.66 387.09L261.07000000000005 392.32ZM282.77 383.26L280.15999999999997 383.26L280.15999999999997 395.28L282.77 395.28L282.77 392.11999999999995L283.33 392.11999999999995L285.34999999999997 395.28L288.51 395.28L285.46999999999997 390.96L288.49999999999994 387.09L285.3299999999999 387.09L283.3999999999999 389.79999999999995L282.7699999999999 389.79999999999995ZM273.55 383.26L270.94 383.26L270.94 395.28L273.55 395.28L273.55 392.11999999999995L274.11 392.11999999999995L276.13 395.28L279.28 395.28L276.25 390.96L279.27 387.09L276.10999999999996 387.09L274.16999999999996 389.79999999999995L273.54999999999995 389.79999999999995ZM249.34 387.09L247.20000000000002 387.09L247.20000000000002 384.7L244.58 384.7L244.58 387.09L243.71 387.09L243.71 389.4L244.58 389.4L244.58 392.13C244.58 394.19 245.58 395.5 247.77 395.5C249.09 395.5 249.91 395.12 250.68 394.59L249.78 392.54999999999995C249.37 392.78999999999996 248.84 393.05999999999995 248.36 393.05999999999995C247.70000000000002 393.05999999999995 247.20000000000002 392.73999999999995 247.20000000000002 391.79999999999995L247.20000000000002 389.4L249.34 389.4ZM288.46 391.23C288.46 393.78000000000003 290.21 395.5 292.78 395.5C294.28999999999996 395.5 295.53 395 296.39 394.15L294.7 392.58C294.18 393.05 293.52 393.3 292.90999999999997 393.3C292.01 393.3 291.38 392.88 291.15999999999997 391.99L296.71 391.99C296.75 391.81 296.76 391.45 296.76 391.18C296.75 388.62 295.09 386.86 292.65999999999997 386.86C290.17999999999995 386.86 288.46 388.65000000000003 288.46 391.23ZM237.32 388.12L237.32 387.09000000000003L234.81 387.09000000000003L234.81 395.28000000000003L237.43 395.28000000000003L237.43 390.87C237.43 389.81 238.03 389.32 238.75 389.32C239.56 389.32 240.05 389.86 240.05 390.83L240.05 395.28L242.66000000000003 395.28L242.66000000000003 389.9C242.66000000000003 388.01 241.39000000000001 386.85999999999996 239.76000000000002 386.85999999999996C238.66000000000003 386.85999999999996 237.84000000000003 387.25999999999993 237.32000000000002 388.11999999999995ZM230.42 389.44C230.42 391.44 229.05999999999997 392.82 227.16 392.82C225.26 392.82 223.9 391.44 223.9 389.44C223.9 387.43 225.26000000000002 386.05 227.16 386.05C229.06 386.05 230.42 387.43 230.42 389.44ZM266.5 395.28L269.11 395.28L269.11 387.09L266.5 387.09ZM266.23 384.57C266.23 385.45 266.90000000000003 386.12 267.79 386.12C268.67 386.12 269.35 385.45 269.35 384.57C269.35 383.68 268.67 383 267.79 383C266.90000000000003 383 266.23 383.68 266.23 384.57ZM294.15 390.34L291.16999999999996 390.34C291.36999999999995 389.53 291.85999999999996 389.08 292.66999999999996 389.08C293.42999999999995 389.08 293.93999999999994 389.52 294.15 390.34ZM298.16 383.26L300.78000000000003 383.26L300.78000000000003 395.28L298.16 395.28Z " fill="#ffffff" fill-opacity="1" transform="matrix(1,0,0,1,-221,-369)"></path><path id="SvgjsPath1070" d="M239.84 378.31L234.79 378.31L234.79 369L232 369L232 380.89L239.84 380.89ZM265.19 372.7L262.66 372.7L262.66 373.59C262.16 372.95 261.41 372.47999999999996 260.31 372.47999999999996C258.12 372.47999999999996 256.5 374.37999999999994 256.5 376.78999999999996C256.5 379.21 258.12 381.10999999999996 260.3 381.10999999999996C261.41 381.10999999999996 262.16 380.65 262.66 380.00999999999993L262.66 380.88999999999993L265.19 380.88999999999993ZM240.6 376.84C240.6 379.4 242.34 381.10999999999996 244.91 381.10999999999996C246.42 381.10999999999996 247.67 380.61999999999995 248.52 379.77L246.83 378.2C246.31 378.65999999999997 245.65 378.90999999999997 245.04000000000002 378.90999999999997C244.14000000000001 378.90999999999997 243.51000000000002 378.49999999999994 243.29000000000002 377.59999999999997L248.84000000000003 377.59999999999997C248.88000000000002 377.42999999999995 248.89000000000004 377.05999999999995 248.89000000000004 376.78999999999996C248.88000000000005 374.22999999999996 247.22000000000006 372.47999999999996 244.79000000000005 372.47999999999996C242.31000000000006 372.47999999999996 240.60000000000005 374.27 240.60000000000005 376.84ZM273.22 376.84C273.22 379.4 274.96000000000004 381.10999999999996 277.53000000000003 381.10999999999996C279.04 381.10999999999996 280.29 380.61999999999995 281.14000000000004 379.77L279.45000000000005 378.2C278.93000000000006 378.65999999999997 278.27000000000004 378.90999999999997 277.6700000000001 378.90999999999997C276.76000000000005 378.90999999999997 276.13000000000005 378.49999999999994 275.9100000000001 377.59999999999997L281.4600000000001 377.59999999999997C281.5000000000001 377.42999999999995 281.5100000000001 377.05999999999995 281.5100000000001 376.78999999999996C281.5000000000001 374.22999999999996 279.8400000000001 372.47999999999996 277.4100000000001 372.47999999999996C274.93000000000006 372.47999999999996 273.2200000000001 374.27 273.2200000000001 376.84ZM269.52 373.65L269.52 372.7L267.01 372.7L267.01 380.89L269.63 380.89L269.63 376.46999999999997C269.63 375.45 270.19 374.98999999999995 271.12 374.98999999999995C271.59000000000003 374.98999999999995 272.08 375.09 272.43 375.21L272.67 372.59999999999997C272.47 372.54999999999995 272.14000000000004 372.47999999999996 271.76 372.47999999999996C270.75 372.47999999999996 269.99 372.84999999999997 269.52 373.65ZM252.8 373.65L252.8 372.7L250.29000000000002 372.7L250.29000000000002 380.89L252.91000000000003 380.89L252.91000000000003 376.46999999999997C252.91000000000003 375.45 253.47000000000003 374.98999999999995 254.40000000000003 374.98999999999995C254.87000000000003 374.98999999999995 255.36000000000004 375.09 255.71000000000004 375.21L255.95000000000005 372.59999999999997C255.75000000000006 372.54999999999995 255.42000000000004 372.47999999999996 255.04000000000005 372.47999999999996C254.03000000000006 372.47999999999996 253.27000000000004 372.84999999999997 252.80000000000004 373.65ZM262.68 376.79C262.68 377.88 261.96 378.67 260.93 378.67C259.89 378.67 259.18 377.86 259.18 376.79C259.18 375.73 259.89 374.92 260.93 374.92C261.96 374.92 262.68 375.71000000000004 262.68 376.79ZM246.28 375.95L243.3 375.95C243.5 375.14 243.99 374.7 244.8 374.7C245.56 374.7 246.07000000000002 375.13 246.28 375.95ZM278.9 375.95L275.91999999999996 375.95C276.11999999999995 375.14 276.60999999999996 374.7 277.41999999999996 374.7C278.17999999999995 374.7 278.68999999999994 375.13 278.9 375.95ZM287.86 372.48C289.49 372.48 290.76 373.62 290.76 375.52000000000004L290.76 380.89000000000004L288.15 380.89000000000004L288.15 376.44000000000005C288.15 375.4800000000001 287.65999999999997 374.93000000000006 286.85999999999996 374.93000000000006C286.12999999999994 374.93000000000006 285.53 375.43000000000006 285.53 376.49000000000007L285.53 380.89000000000004L282.91999999999996 380.89000000000004L282.91999999999996 372.70000000000005L285.41999999999996 372.70000000000005L285.41999999999996 373.73C285.93999999999994 372.87 286.75999999999993 372.48 287.85999999999996 372.48Z " fill="#ffffff" fill-opacity="1" transform="matrix(1,0,0,1,-221,-369)"></path><path id="SvgjsPath1071" d="M273.01 401.61C274.05 401.61 274.78 402.02000000000004 275.27 402.62L275.27 398L277.87 398L277.87 410.02L275.35 410.02L275.35 409.13C274.86 409.78 274.11 410.24 273 410.24C270.81 410.24 269.19 408.33 269.19 405.91C269.19 403.51000000000005 270.81 401.61 273.01 401.61ZM243.43 405.55L237.79000000000002 405.55L237.79000000000002 410.02000000000004L235.00000000000003 410.02000000000004L235.00000000000003 398.33000000000004L243.83000000000004 398.33000000000004L243.83000000000004 400.85L237.79000000000005 400.85L237.79000000000005 403.03000000000003L243.43000000000004 403.03000000000003ZM264.94 401.61C266.58 401.61 267.85 402.75 267.85 404.64L267.85 410.02L265.24 410.02L265.24 405.57C265.24 404.59999999999997 264.75 404.06 263.94 404.06C263.21999999999997 404.06 262.62 404.55 262.62 405.61L262.62 410.02000000000004L260 410.02000000000004L260 401.83000000000004L262.51 401.83000000000004L262.51 402.86C263.03 402 263.84999999999997 401.61 264.94 401.61ZM273.63 404.04C272.58 404.04 271.88 404.85 271.88 405.92C271.88 406.99 272.58 407.8 273.63 407.8C274.65 407.8 275.38 407.01 275.38 405.92C275.38 404.84000000000003 274.65 404.04 273.63 404.04ZM286.59 402.32C285.23999999999995 401.8 284.39 401.61 283.07 401.61C280.84 401.61 279.53 402.61 279.53 404.35C279.53 405.82000000000005 280.45 406.64000000000004 282.40999999999997 406.93L282.89 407C283.82 407.14 284.18 407.27 284.18 407.58C284.18 407.93 283.85 408.12 283.04 408.12C281.91 408.12 280.97 407.83 280.15000000000003 407.35L279.24 409.37C280.18 409.98 281.62 410.23 283.02 410.23C285.40999999999997 410.23 286.81 409.15000000000003 286.81 407.36C286.81 405.98 285.89 405.14 284.13 404.87L283.53 404.78000000000003C282.72999999999996 404.65000000000003 282.21 404.57000000000005 282.21 404.22C282.21 403.92 282.47999999999996 403.72 283.16999999999996 403.72C283.99999999999994 403.73 285.04999999999995 404.01000000000005 285.85999999999996 404.35Z " fill="#ffffff" fill-opacity="1" transform="matrix(1,0,0,1,-221,-369)"></path><path id="SvgjsPath1072" d="M255.99 405.14C255.96 404.9 255.91 404.66999999999996 255.83 404.44L258.18 403.09L257.95 402.65999999999997C257.87 402.51 257.78999999999996 402.35999999999996 257.7 402.21999999999997L257.44 401.80999999999995L255.14 403.13999999999993C255.04 403.0199999999999 254.92999999999998 402.8999999999999 254.82 402.7799999999999C254.76 402.7199999999999 254.69 402.6599999999999 254.62 402.5999999999999L255.94 400.3099999999999L255.53 400.0499999999999C255.39000000000001 399.9599999999999 255.24 399.8799999999999 255.09 399.7999999999999L254.67000000000002 399.5699999999999L253.36 401.83999999999986C253.12 401.7499999999999 252.87 401.67999999999984 252.61 401.6299999999999L252.61 399.01999999999987L251.88000000000002 398.9999999999999L251.14000000000001 399.01999999999987L251.14000000000001 401.6299999999999C250.88000000000002 401.6799999999999 250.63000000000002 401.7499999999999 250.39000000000001 401.83999999999986L249.09 399.5699999999999L248.66 399.7999999999999C248.51 399.8799999999999 248.35999999999999 399.9599999999999 248.22 400.0499999999999L247.81 400.3099999999999L249.13 402.5999999999999C249.07 402.6599999999999 249 402.7199999999999 248.93 402.7799999999999C248.82 402.8999999999999 248.71 403.0199999999999 248.61 403.13999999999993L246.31 401.80999999999995L246.05 402.21999999999997C245.96 402.35999999999996 245.88000000000002 402.51 245.8 402.65999999999997L245.57000000000002 403.09L247.92000000000002 404.44C247.84 404.67 247.79000000000002 404.9 247.76000000000002 405.14L245.03000000000003 405.14L245.00000000000003 405.62C245.00000000000003 405.7 245.00000000000003 405.79 245.00000000000003 405.88C245.00000000000003 405.96 245.00000000000003 406.05 245.00000000000003 406.13L245.03000000000003 406.61L247.80000000000004 406.61C247.85000000000005 406.84000000000003 247.92000000000004 407.06 247.99000000000004 407.27000000000004L245.57000000000005 408.67L245.80000000000004 409.09000000000003C245.88000000000005 409.24 245.96000000000004 409.39000000000004 246.05000000000004 409.53000000000003L246.31000000000003 409.94000000000005L248.61000000000004 408.61000000000007C248.65000000000003 408.69000000000005 248.69000000000005 408.7700000000001 248.73000000000005 408.8400000000001C249.18000000000004 409.68000000000006 249.60000000000005 410.4600000000001 249.63000000000005 411.4200000000001L249.65000000000006 411.80000000000007L249.65000000000006 414.24000000000007L249.90000000000006 414.38000000000005C250.68000000000006 414.84000000000003 251.28000000000006 415.07000000000005 251.88000000000005 415.07000000000005C252.48000000000005 415.07000000000005 253.08000000000004 414.84000000000003 253.86000000000004 414.38000000000005L254.10000000000005 414.24000000000007L254.10000000000005 411.82000000000005L254.12000000000006 411.4200000000001C254.15000000000006 410.4700000000001 254.57000000000005 409.68000000000006 255.02000000000007 408.8400000000001C255.06000000000006 408.7600000000001 255.10000000000008 408.6900000000001 255.14000000000007 408.61000000000007L257.44000000000005 409.94000000000005L257.70000000000005 409.53000000000003C257.79 409.39000000000004 257.87000000000006 409.24 257.95000000000005 409.09000000000003L258.18000000000006 408.67L255.76000000000008 407.27000000000004C255.83000000000007 407.06000000000006 255.90000000000006 406.84000000000003 255.95000000000007 406.61L258.7300000000001 406.61L258.75000000000006 405.88L258.7300000000001 405.14ZM254.57 405.73C254.57 406.58000000000004 254.16 407.34000000000003 253.72 408.15000000000003C253.31 408.91 252.89 409.70000000000005 252.72 410.66L251.03 410.66C250.86 409.70000000000005 250.44 408.91 250.02 408.14000000000004C249.59 407.34000000000003 249.18 406.58000000000004 249.18 405.73C249.18 405.01 249.46 404.33000000000004 249.97 403.82C250.99 402.81 252.76 402.81 253.78 403.82C254.29 404.33 254.57 405.01 254.57 405.73Z " fill="#ffffff" fill-opacity="1" transform="matrix(1,0,0,1,-221,-369)"></path></svg>