<svg id="SvgjsSvg1008" xmlns="http://www.w3.org/2000/svg" version="1.1" xmlns:xlink="http://www.w3.org/1999/xlink" xmlns:svgjs="http://svgjs.com/svgjs" width="311" height="117" viewBox="0 0 311 117"><title>Fill 1 Copy</title><desc>Created with Avocode.</desc><defs id="SvgjsDefs1009"></defs><path id="SvgjsPath1010" d="M108.52 53.76C108.52 83.45 84.44999999999999 107.52 54.76 107.52C25.069999999999997 107.52 1 83.44999999999999 1 53.76C1 24.069999999999997 25.07 0 54.76 0C84.45 0 108.52 24.07 108.52 53.76Z " fill="#50e3c2" fill-opacity="1" transform="matrix(1,0,0,1,0,0)"></path><path id="SvgjsPath1011" d="M3.92 34C1.3900000000000001 40.230000000000004 0 47.04 0 54.18C0 83.87 24.07 107.94 53.76 107.94C66.42 107.94 78.05 103.56 87.24 96.22999999999999C96.42999999999999 103.55999999999999 108.06 107.94 120.72 107.94C127.37 107.94 133.74 106.72 139.61 104.50999999999999Z " fill="#aaf1e0" fill-opacity="1" transform="matrix(1,0,0,1,0,0)"></path><path id="SvgjsPath1012" d="M121.16 0.01C121.03999999999999 0.01 120.92 0 120.8 0C108.14 0 96.50999999999999 4.38 87.32 11.7C78.13 4.379999999999999 66.5 0 53.839999999999996 0C31.289999999999996 0 11.979999999999997 13.89 3.999999999999993 33.58L139.69 104.09C144.76 102.19 149.47 99.55 153.67 96.29C162.76 103.33000000000001 174.16 107.51 186.54 107.51C187.76 107.51 188.97 107.46000000000001 190.16 107.38000000000001Z " fill="#89ebd4" fill-opacity="1" transform="matrix(1,0,0,1,0,0)"></path><path id="SvgjsPath1013" d="M190 107.38C200.33 106.69999999999999 209.85 103.08999999999999 217.77 97.39L229.65 3.980000000000004C225.55 5.660000000000004 221.69 7.820000000000004 218.17000000000002 10.410000000000004C209.27 3.8700000000000037 198.27 3.552713678800501e-15 186.38000000000002 3.552713678800501e-15C174.00000000000003 3.552713678800501e-15 162.60000000000002 4.190000000000004 153.51000000000002 11.220000000000004C144.51000000000002 4.260000000000004 133.24 0.09000000000000341 121.00000000000003 0.01000000000000334Z " fill="#69e5c8" fill-opacity="1" transform="matrix(1,0,0,1,0,0)"></path><path id="SvgjsPath1014" d="M229.34 4C209.78 12.04 196 31.28 196 53.74C196 71.35 204.46 86.97 217.54 96.78Z " fill="#5ed1b3" fill-opacity="1" transform="matrix(1,0,0,1,0,0)"></path><path id="SvgjsPath1015" d="M171.52 53.76C171.52 83.45 147.45000000000002 107.52 117.76000000000002 107.52C88.07000000000002 107.52 64.00000000000003 83.44999999999999 64.00000000000003 53.76C64.00000000000003 24.069999999999997 88.07000000000002 0 117.76000000000002 0C147.45000000000002 0 171.52 24.07 171.52 53.76 " fill="#50e3c2" fill-opacity="1" transform="matrix(1,0,0,1,0,0)"></path><path id="SvgjsPath1016" d="M240.52 53.76C240.52 83.45 216.45000000000002 107.52 186.76000000000002 107.52C157.07000000000002 107.52 133.00000000000003 83.44999999999999 133.00000000000003 53.76C133.00000000000003 24.069999999999997 157.07000000000002 0 186.76000000000002 0C216.45000000000002 0 240.52 24.07 240.52 53.76Z " fill="#50e3c2" fill-opacity="1" transform="matrix(1,0,0,1,0,0)"></path><path id="SvgjsPath1017" d="M296.79 27C301.39000000000004 34.93 304.03000000000003 44.129999999999995 304.03000000000003 53.96C304.03000000000003 83.67 279.94000000000005 107.75 250.24000000000004 107.75C238.33000000000004 107.75 227.33000000000004 103.88 218.42000000000004 97.33C209.51000000000005 103.88 198.51000000000005 107.75 186.61000000000004 107.75C170.94000000000005 107.75 156.83000000000004 101.04 147.00000000000006 90.35C156.36000000000007 106.16999999999999 173.59000000000006 116.77 193.30000000000007 116.77C205.19000000000005 116.77 216.19000000000005 112.91 225.09000000000006 106.36C234.00000000000006 112.91 244.99000000000007 116.77 256.88000000000005 116.77C286.57000000000005 116.77 310.64000000000004 92.71 310.64000000000004 63.019999999999996C310.64000000000004 49.16 305.40000000000003 36.53 296.79 26.999999999999993 " fill="#269175" fill-opacity="1" transform="matrix(1,0,0,1,0,0)"></path><path id="SvgjsPath1018" d="M68.98 68.75L53.56 68.75C53.02 68.75 52.760000000000005 68.67 52.760000000000005 68.44C52.760000000000005 68.28 53.02 68.05 53.290000000000006 67.89C58.650000000000006 65.7 63.46000000000001 63.66 67.48 61.46C67.17 59.1 67 56.69 67 54.25C67 46.15 68.79 38.480000000000004 72 31.59C67.32 28.77 60.79 27 52.760000000000005 27C35.77000000000001 27 26.400000000000006 35.07 26.400000000000006 44.629999999999995C26.400000000000006 47.76 26.400000000000006 48.06999999999999 28.010000000000005 48.15L48.74000000000001 48.699999999999996C49.28000000000001 48.699999999999996 49.81000000000001 48.459999999999994 49.81000000000001 48.06999999999999C49.81000000000001 45.71999999999999 51.42000000000001 43.449999999999996 53.290000000000006 43.449999999999996C54.63000000000001 43.449999999999996 55.160000000000004 44.15 55.160000000000004 45.24999999999999C55.160000000000004 51.82999999999999 37.24 57.46999999999999 27.340000000000003 66.39999999999999C26.400000000000002 67.25999999999999 26.000000000000004 68.13 26.000000000000004 68.74999999999999L26.000000000000004 84.41999999999999C26.000000000000004 84.72999999999999 26.670000000000005 84.96999999999998 27.200000000000003 84.96999999999998L76.64 84.96999999999998C73.24 80.08999999999999 70.62 74.61999999999999 68.98 68.74999999999999 " fill="#ffffff" fill-opacity="1" transform="matrix(1,0,0,1,0,0)"></path><path id="SvgjsPath1019" d="M123.64 66.42C123.64 68.69 120.97 68.69 120.16 68.69C119.63 68.69 119.36 68.53999999999999 119.36 68.07L119.36 42.05999999999999C119.36 41.58999999999999 119.63 41.34999999999999 120.16 41.34999999999999C120.83 41.34999999999999 121.89999999999999 41.58999999999999 122.44 41.819999999999986C123.24 42.20999999999999 123.64 42.83999999999999 123.64 43.62999999999999ZM138.51 30.04C132.94 27.39 125.57999999999998 26 116.69 26L92.74 26C91.67 26 91 26.55 91 27.18L91 83.81C91 84.36 91.54 84.75 92.61 84.75L117.62 84.75C126.64 84.75 134.04000000000002 82.99 139.52 79.95C135.28 72.26 132.87 63.43000000000001 132.87 54.03C132.87 45.410000000000004 134.9 37.260000000000005 138.51 30.040000000000003Z " fill="#ffffff" fill-opacity="1" transform="matrix(1,0,0,1,0,0)"></path><path id="SvgjsPath1020" d="M303.52 53.76C303.52 83.45 279.45 107.52 249.76 107.52C220.07 107.52 196 83.44999999999999 196 53.76C196 24.069999999999997 220.07 0 249.76 0C279.45 0 303.52 24.07 303.52 53.76 " fill="#40b69b" fill-opacity="1" transform="matrix(1,0,0,1,0,0)"></path><path id="SvgjsPath1021" d="M196.37 54.25C196.37 45.38 198.52 37.010000000000005 202.32 29.64C197.9 27.93 192.32 27 185.95999999999998 27C159.07 27 159.07 39.53 159.07 45.33C159.07 45.72 159.34 45.96 160.14 45.96L182.35 46.5C183.28 46.5 183.82 46.11 183.82 45.72C183.82 42.199999999999996 183.82 41.8 185.95999999999998 41.8C188.09999999999997 41.8 188.09999999999997 42.279999999999994 188.09999999999997 46.81999999999999C188.09999999999997 48.06999999999999 185.95999999999998 49.089999999999996 182.74999999999997 49.089999999999996C176.85999999999999 49.089999999999996 176.18999999999997 49.089999999999996 176.18999999999997 50.26L176.18999999999997 59.51C176.18999999999997 60.37 176.85999999999996 60.37 182.74999999999997 60.37C188.09999999999997 60.37 188.09999999999997 61.62 188.09999999999997 67.34C188.09999999999997 68.36 187.02999999999997 68.91 185.95999999999998 68.91C183.82 68.91 183.82 68.44 183.82 63.9C183.82 63.5 183.54999999999998 63.269999999999996 182.88 63.269999999999996L158.8 63.81999999999999C158 63.81999999999999 158 64.28999999999999 158 67.66C158 77.67999999999999 169.5 84.97 185.96 84.97C192.97 84.97 199.04000000000002 83.66 203.72 81.4C199.05 73.43 196.37 64.15 196.37 54.25000000000001 " fill="#ffffff" fill-opacity="1" transform="matrix(1,0,0,1,0,0)"></path><path id="SvgjsPath1022" d="M253.64 43.63C253.64 42.84 253.23999999999998 42.21 252.44 41.82C251.9 41.59 250.82999999999998 41.35 250.16 41.35C249.63 41.35 249.35999999999999 41.59 249.35999999999999 42.06L249.35999999999999 68.07000000000001C249.35999999999999 68.54 249.63 68.69000000000001 250.16 68.69000000000001C250.97 68.69000000000001 253.64 68.69000000000001 253.64 66.42000000000002ZM222.61 84.75C221.54000000000002 84.75 221 84.36 221 83.81L221 27.17C221 26.55 221.67 26 222.74 26L246.69 26C267.96 26 280.53 33.91 280.53 48.17L280.53 62.74C280.53 75.43 268.35999999999996 84.75 247.61999999999998 84.75Z " fill="#ffffff" fill-opacity="1" transform="matrix(1,0,0,1,0,0)"></path></svg>