<svg xmlns="http://www.w3.org/2000/svg" width="187" height="50" viewBox="0 0 187 50"><title>Page 1</title><path d="M85.02 39.29h5.06c.03 0 .03 0 .03-.03V18.02c0-.02 0-.02-.03-.02h-5.06c-.02 0-.02 0-.02.02v21.24c0 .03 0 .03.02.03M125.32 22c-3.18 0-4.94.93-7.19 2.79 0 0-.02-.03-.02 0 0-.17.07-1.3-.15-1.3-1.39 0-3.47-.05-4.96 0v15.69c1.93.02 5.11 0 5.11 0 .02-3.04.02-6.46.02-9.69.2-1.37 1.57-3.43 5.08-3.43 2.5-.19 3.08 1.76 3.08 3.97v9.15h5.09c0-1.37.53-9.64-.2-12.78-.88-3.91-4.74-4.35-5.86-4.4M78.08 30.36c0 2.6-2.2 4.75-4.94 4.75-2.69 0-4.89-2.15-4.89-4.75 0-2.64 2.2-4.74 4.89-4.74 2.74 0 4.94 2.1 4.94 4.74zM63 38.66h5.23v-1.45c1.61 1.03 3.57 1.62 5.69 1.62 5.31 0 9.63-3.87 9.63-8.59s-4.32-8.59-9.63-8.59c-2.12 0-4.08.61-5.69 1.64v-5.87L63 16zM137.52 30.36c0 2.6 2.2 4.75 4.89 4.75 2.74 0 4.94-2.15 4.94-4.75 0-2.64-2.2-4.74-4.94-4.74-2.69 0-4.89 2.1-4.89 4.74zm15.08 8.3h-5.38l.03-1.42c-1.59 1-3.54 1.59-5.62 1.59-5.3 0-9.63-3.87-9.63-8.59s4.33-8.59 9.63-8.59c2.12 0 4.08.64 5.67 1.67l.02-5.9L152.6 16zM159.92 28.62c.29-1.76 1.27-3.23 4.05-3.42 2.5 0 4.06 1.51 4.06 3.42zm3.49-6.61c-6.3.15-9.53 3.41-9.41 9.35.52 5.82 3.74 7.54 9.09 8.32 4.62.17 7.87-1.42 8.97-3.62-1.19-.86-2.69-1.62-3.86-2.45-1.29 1.81-2.44 2.77-4.4 2.47-3.42-.51-3.98-2.15-4.1-4.08 4.57 0 9.58-.03 14.12-.03-.05-6.06-2.42-10.25-10.41-9.96zM97.92 28.62c.29-1.76 1.27-3.23 4.05-3.42 2.5 0 4.06 1.51 4.06 3.42zm3.49-6.61c-6.3.15-9.53 3.41-9.41 9.35.52 5.82 3.74 7.54 9.09 8.32 4.62.17 7.87-1.42 8.97-3.62-1.24-.81-2.64-1.66-3.86-2.45-1.29 1.81-2.44 2.77-4.4 2.47-3.42-.51-3.98-2.15-4.1-4.08 4.57 0 9.58-.03 14.12-.03-.05-6.06-2.42-10.25-10.41-9.96zM175.15 38.69h4.84c.09 0 .14 0 .14-.05v-9.62c1.15-2.27 3.08-2.76 5.94-2.64l-.02-4.38c-3.35.12-4.33.42-5.92 2.15v-1.17c0-.05-.05-.05-.14-.05h-4.84c-.1 0-.15 0-.15.05v15.66c0 .05.05.05.15.05M52.08 28.77c0 6.41-5.81 11.6-12.9 11.6-7.13 0-12.9-5.19-12.9-11.6 0-6.36 5.77-11.6 12.9-11.6 7.09 0 12.9 5.24 12.9 11.6zm-40.27-17.6c-4.47.35-3.76 6.32-.46 6.27 3.05-.05 8.18 0 11.82 0-5.22 4.94-16.91 12.43-22.01 17.3-1.98 1.88-1.86 7.36 3.88 6.09 2.18-1.2 12-9.22 13.35-10.59.68 17.05 19.84 25.05 34.23 15.04 7.65-5.33 10.29-18.84 4.3-25.49C52.21 14.5 43.6 9.22 33.32.63c-1.64-1.35-6.55-.66-4.89 3.35 0 0 4.37 4.38 8.23 7.19z" fill="#fff"/><path d="M40 21c4.41 0 8.01 3.39 8.01 7.55S44.41 36.1 40 36.1c-4.4 0-8-3.39-8-7.55S35.6 21 40 21" fill="#fff"/></svg>