<svg xmlns="http://www.w3.org/2000/svg" width="56" height="33" viewBox="0 0 56 33"><title>Fill 1</title><path d="M0 14.48c0 2.42 1.78 4.21 4.29 4.21 2.5 0 4.28-1.79 4.28-4.21 0-2.43-1.78-4.22-4.28-4.22-2.51 0-4.29 1.79-4.29 4.22zm26.71-1.63H24.9l-1.15 3.61-1.1-3.61h-1.93l1.96 5.69h2.02l1.1-3.41 1.11 3.41h2.02l1.96-5.69h-1.91l-1.11 3.63zm9.85-2.67h-1.82v8.36h1.82v-2.2h.38l1.41 2.2h2.2l-2.12-3.01 2.11-2.68h-2.2l-1.35 1.88h-.43zm6.41 0h-1.82v8.36h1.82v-2.2h.39l1.41 2.2h2.19l-2.11-3.01 2.11-2.68h-2.21l-1.34 1.88h-.44zm-23.26 2.67h-1.49v-1.67h-1.81v1.67h-.61v1.6h.61v1.9c0 1.43.69 2.34 2.21 2.34.92 0 1.49-.26 2.03-.63l-.63-1.42c-.29.17-.65.36-.99.36-.46 0-.81-.22-.81-.88v-1.67h1.49zm27.22 2.88c0 1.77 1.22 2.96 3 2.96 1.06 0 1.92-.34 2.51-.93l-1.17-1.09c-.36.32-.82.5-1.24.5-.63 0-1.07-.29-1.22-.92h3.86c.02-.12.03-.37.03-.56 0-1.78-1.16-3-2.85-3-1.73 0-2.92 1.24-2.92 3.04zm-35.58-2.17v-.71H9.61v5.69h1.82v-3.06c0-.74.42-1.08.92-1.08.56 0 .9.37.9 1.05v3.09h1.82V14.8c0-1.32-.88-2.11-2.02-2.11-.76 0-1.34.27-1.7.87zm-4.8.92c0 1.39-.94 2.35-2.26 2.35-1.33 0-2.27-.96-2.27-2.35 0-1.4.94-2.36 2.27-2.36 1.32 0 2.26.96 2.26 2.36zm25.1 4.06h1.82v-5.69h-1.82zm-.19-7.45c0 .61.47 1.08 1.09 1.08.61 0 1.09-.47 1.09-1.08 0-.61-.48-1.09-1.09-1.09-.62 0-1.09.48-1.09 1.09zm19.43 4.01h-2.08c.14-.56.49-.87 1.05-.87.53 0 .88.31 1.03.87zm2.79-4.92h1.82v8.36h-1.82z" fill="#750d68"/><path d="M12.46 6.47H8.94V0H7v8.27h5.46zm17.63-3.89h-1.76v.61c-.35-.44-.87-.77-1.63-.77-1.53 0-2.66 1.32-2.66 3s1.13 3 2.65 3c.77 0 1.29-.31 1.64-.76v.61h1.76zM12.98 5.46c0 1.77 1.21 2.96 3 2.96 1.05 0 1.92-.34 2.51-.93L17.32 6.4c-.36.32-.82.5-1.25.5-.62 0-1.06-.29-1.21-.91h3.86c.02-.13.03-.38.03-.57 0-1.78-1.16-3-2.85-3-1.73 0-2.92 1.24-2.92 3.04zm22.69 0c0 1.77 1.22 2.96 3 2.96 1.06 0 1.92-.34 2.51-.93L40.01 6.4c-.36.32-.82.5-1.24.5-.63 0-1.07-.29-1.22-.91h3.86c.02-.13.03-.38.03-.57 0-1.78-1.16-3-2.85-3-1.73 0-2.92 1.24-2.92 3.04zm-14.2-2.23v-.65h-1.74v5.69h1.81V5.2c0-.71.4-1.03 1.04-1.03.33 0 .67.07.92.15l.16-1.81c-.14-.04-.37-.09-.63-.09-.7 0-1.23.26-1.56.81zm11.63 0v-.65h-1.74v5.69h1.82V5.2c0-.71.39-1.03 1.03-1.03.33 0 .67.07.92.15l.16-1.81c-.13-.04-.37-.09-.63-.09-.7 0-1.23.26-1.56.81zm-4.76 2.19c0 .76-.5 1.31-1.22 1.31s-1.21-.56-1.21-1.31c0-.74.49-1.3 1.21-1.3s1.22.55 1.22 1.3zm11.29-.58h-2.08c.14-.57.49-.88 1.05-.88.53 0 .88.31 1.03.88zm-22.7 0h-2.07c.14-.57.48-.88 1.05-.88.52 0 .88.31 1.02.88zm28.93-2.42c1.14 0 2.02.8 2.02 2.11v3.74h-1.82V5.18c0-.67-.34-1.05-.9-1.05-.5 0-.92.34-.92 1.08v3.06h-1.82V2.58h1.74v.71c.36-.6.94-.87 1.7-.87z" fill="#00989a"/><path d="M36.44 22.51c.73 0 1.23.29 1.57.7V20h1.82v8.36h-1.76v-.61c-.34.44-.86.76-1.64.76-1.52 0-2.64-1.32-2.64-3.01 0-1.67 1.12-2.99 2.65-2.99zm-20.58 2.75h-3.92v3.1H10v-8.13h6.14v1.75h-4.2v1.52h3.92zm14.97-2.75c1.14 0 2.02.79 2.02 2.11v3.74h-1.82v-3.09c0-.68-.33-1.05-.9-1.05-.5 0-.92.34-.92 1.08v3.06h-1.82v-5.69h1.75v.71c.36-.6.93-.87 1.69-.87zm6.04 1.69c-.73 0-1.21.57-1.21 1.31 0 .74.48 1.31 1.21 1.31.71 0 1.22-.55 1.22-1.31 0-.75-.51-1.31-1.22-1.31zm9.02-1.2c-.94-.36-1.53-.49-2.45-.49-1.55 0-2.46.7-2.46 1.91 0 1.02.63 1.59 2 1.79l.34.05c.64.1.9.19.9.41 0 .24-.24.37-.8.37-.79 0-1.44-.2-2.01-.54l-.63 1.41c.65.42 1.65.6 2.63.6 1.66 0 2.63-.75 2.63-2 0-.96-.64-1.55-1.86-1.73l-.42-.06c-.55-.09-.91-.15-.91-.39 0-.21.18-.35.66-.35.58 0 1.31.2 1.87.44z" fill="#750d68"/><path d="M24.65 25.27c-.03-.16-.06-.33-.11-.49l1.63-.94-.16-.29c-.05-.11-.11-.21-.18-.31l-.17-.28-1.61.92c-.07-.09-.14-.17-.22-.25-.04-.04-.09-.09-.14-.13l.92-1.59-.29-.18c-.09-.06-.2-.12-.3-.17l-.3-.16-.91 1.57c-.16-.06-.34-.11-.51-.14v-1.81l-.52-.02-.51.02v1.81c-.18.03-.35.08-.52.14l-.91-1.57-.3.16c-.1.05-.2.11-.3.17l-.28.18.92 1.59c-.05.04-.1.09-.14.13-.08.08-.16.16-.23.25l-1.6-.92-.18.28c-.06.1-.12.2-.17.31l-.16.29 1.63.94c-.05.16-.09.33-.11.49h-1.9l-.02.34v.35l.02.34h1.93c.03.15.08.3.13.45l-1.68.97.16.3c.05.1.11.21.17.31l.18.28 1.6-.92c.03.05.06.1.08.16.32.58.61 1.13.63 1.79l.01.26v1.7l.18.1c.54.32.96.48 1.38.48.41 0 .83-.16 1.37-.48l.17-.1v-1.68l.01-.28c.02-.66.32-1.21.63-1.8l.09-.15 1.6.92.17-.28c.07-.1.13-.21.18-.31l.16-.3-1.68-.97c.05-.15.09-.3.13-.45h1.93l.02-.52-.02-.51zm-.99.41c0 .59-.29 1.12-.59 1.69-.29.53-.58 1.07-.7 1.74h-1.18c-.11-.67-.41-1.22-.7-1.75-.3-.56-.58-1.09-.58-1.68 0-.5.2-.97.55-1.33.7-.7 1.94-.7 2.65 0 .35.36.55.83.55 1.33z" fill="#00989a"/></svg>