<svg xmlns="http://www.w3.org/2000/svg" width="80" height="47" viewBox="0 0 80 47"><title>Fill 1</title><path d="M0 20.44c0 3.48 2.55 6.06 6.16 6.06 3.61 0 6.16-2.58 6.16-6.06 0-3.49-2.55-6.06-6.16-6.06-3.61 0-6.16 2.57-6.16 6.06zm38.4-2.35h-2.61l-1.66 5.2-1.57-5.2h-2.78l2.83 8.19h2.89l1.58-4.9 1.6 4.9h2.91l2.82-8.19h-2.75l-1.59 5.23zm23.37-3.83h-2.61v12.02h2.61v-3.16h.56l2.02 3.16h3.16l-3.04-4.32 3.03-3.87h-3.17L62.4 20.8h-.63zm-9.22 0h-2.61v12.02h2.61v-3.16h.56l2.02 3.16h3.15l-3.03-4.32 3.02-3.87h-3.16l-1.94 2.71h-.62zm-24.21 3.83H26.2V15.7h-2.62v2.39h-.87v2.31h.87v2.73c0 2.06 1 3.37 3.19 3.37 1.32 0 2.14-.38 2.91-.91l-.9-2.04c-.41.24-.94.51-1.42.51-.66 0-1.16-.32-1.16-1.26v-2.4h2.14zm39.12 4.14c0 2.55 1.75 4.27 4.32 4.27 1.51 0 2.75-.5 3.61-1.35l-1.69-1.57c-.52.47-1.18.72-1.79.72-.9 0-1.53-.42-1.75-1.31h5.55c.04-.18.05-.54.05-.81-.01-2.56-1.67-4.32-4.1-4.32-2.48 0-4.2 1.79-4.2 4.37zm-51.14-3.11v-1.03h-2.51v8.19h2.62v-4.41c0-1.06.6-1.55 1.32-1.55.81 0 1.3.54 1.3 1.51v4.45h2.61V20.9c0-1.89-1.27-3.04-2.9-3.04-1.1 0-1.92.4-2.44 1.26zm-6.9 1.32c0 2-1.36 3.38-3.26 3.38-1.9 0-3.26-1.38-3.26-3.38 0-2.01 1.36-3.39 3.26-3.39 1.9 0 3.26 1.38 3.26 3.39zm36.08 5.84h2.61v-8.19H45.5zm-.27-10.71c0 .88.67 1.55 1.56 1.55.88 0 1.56-.67 1.56-1.55 0-.89-.68-1.57-1.56-1.57-.89 0-1.56.68-1.56 1.57zm27.92 5.77h-2.98c.2-.81.69-1.26 1.5-1.26.76 0 1.27.44 1.48 1.26zm4.01-7.08h2.62v12.02h-2.62zM18.84 9.31h-5.05V0H11v11.89h7.84zM44.19 3.7h-2.53v.89c-.5-.64-1.25-1.11-2.35-1.11-2.19 0-3.81 1.9-3.81 4.31 0 2.42 1.62 4.32 3.8 4.32 1.11 0 1.86-.46 2.36-1.1v.88h2.53zM19.6 7.84c0 2.56 1.74 4.27 4.31 4.27 1.51 0 2.76-.49 3.61-1.34L25.83 9.2c-.52.46-1.18.71-1.79.71-.9 0-1.53-.41-1.75-1.31h5.55c.04-.17.05-.54.05-.81-.01-2.56-1.67-4.31-4.1-4.31-2.48 0-4.19 1.79-4.19 4.36zm32.62 0c0 2.56 1.74 4.27 4.31 4.27 1.51 0 2.76-.49 3.61-1.34L58.45 9.2c-.52.46-1.18.71-1.78.71-.91 0-1.54-.41-1.76-1.31h5.55c.04-.17.05-.54.05-.81-.01-2.56-1.67-4.31-4.1-4.31-2.48 0-4.19 1.79-4.19 4.36zm-3.7-3.19V3.7h-2.51v8.19h2.62V7.47c0-1.02.56-1.48 1.49-1.48.47 0 .96.1 1.31.22l.24-2.61c-.2-.05-.53-.12-.91-.12-1.01 0-1.77.37-2.24 1.17zm-16.72 0V3.7h-2.51v8.19h2.62V7.47c0-1.02.56-1.48 1.49-1.48.47 0 .96.1 1.31.22l.24-2.61c-.2-.05-.53-.12-.91-.12-1.01 0-1.77.37-2.24 1.17zm9.88 3.14c0 1.09-.72 1.88-1.75 1.88-1.04 0-1.75-.81-1.75-1.88 0-1.06.71-1.87 1.75-1.87 1.03 0 1.75.79 1.75 1.87zm-16.4-.84H22.3c.2-.81.69-1.25 1.5-1.25.76 0 1.27.43 1.48 1.25zm32.62 0h-2.98c.2-.81.69-1.25 1.5-1.25.76 0 1.27.43 1.48 1.25zm8.96-3.47c1.63 0 2.9 1.14 2.9 3.04v5.37h-2.61V7.44c0-.96-.49-1.51-1.29-1.51-.73 0-1.33.5-1.33 1.56v4.4h-2.61V3.7h2.5v1.03c.52-.86 1.34-1.25 2.44-1.25zM52.01 32.61c1.04 0 1.77.41 2.26 1.01V29h2.6v12.02h-2.52v-.89c-.49.65-1.24 1.11-2.35 1.11-2.19 0-3.81-1.91-3.81-4.33 0-2.4 1.62-4.3 3.82-4.3zm-29.58 3.94h-5.64v4.47H14V29.33h8.83v2.52h-6.04v2.18h5.64zm21.51-3.94c1.64 0 2.91 1.14 2.91 3.03v5.38h-2.61v-4.45c0-.97-.49-1.51-1.3-1.51-.72 0-1.32.49-1.32 1.55v4.41H39v-8.19h2.51v1.03c.52-.86 1.34-1.25 2.43-1.25zm8.69 2.43c-1.05 0-1.75.81-1.75 1.88 0 1.07.7 1.88 1.75 1.88 1.02 0 1.75-.79 1.75-1.88 0-1.08-.73-1.88-1.75-1.88zm12.96-1.72c-1.35-.52-2.2-.71-3.52-.71-2.23 0-3.54 1-3.54 2.74 0 1.47.92 2.29 2.88 2.58l.48.07c.93.14 1.29.27 1.29.58 0 .35-.33.54-1.14.54-1.13 0-2.07-.29-2.89-.77l-.91 2.02c.94.61 2.38.86 3.78.86 2.39 0 3.79-1.08 3.79-2.87 0-1.38-.92-2.22-2.68-2.49l-.6-.09c-.8-.13-1.32-.21-1.32-.56 0-.3.27-.5.96-.5.83.01 1.88.29 2.69.63zM34.99 36.14c-.03-.24-.08-.47-.16-.7l2.35-1.35-.23-.43c-.08-.15-.16-.3-.25-.44l-.26-.41-2.3 1.33c-.1-.12-.21-.24-.32-.36-.06-.06-.13-.12-.2-.18l1.32-2.29-.41-.26c-.14-.09-.29-.17-.44-.25l-.42-.23-1.31 2.27c-.24-.09-.49-.16-.75-.21v-2.61l-.73-.02-.74.02v2.61c-.26.05-.51.12-.75.21l-1.3-2.27-.43.23c-.15.08-.3.16-.44.25l-.41.26 1.32 2.29c-.06.06-.13.12-.2.18-.11.12-.22.24-.32.36l-2.3-1.33-.26.41c-.09.14-.17.29-.25.44l-.23.43 2.35 1.35c-.08.23-.13.46-.16.7h-2.73l-.03.48v.51l.03.48h2.77c.05.23.12.45.19.66l-2.42 1.4.23.42c.08.15.16.3.25.44l.26.41 2.3-1.33c.04.08.08.16.12.23.45.84.87 1.62.9 2.58l.02.38v2.44l.25.14c.78.46 1.38.69 1.98.69.6 0 1.2-.23 1.98-.69l.24-.14v-2.42l.02-.4c.03-.95.45-1.74.9-2.58.04-.08.08-.15.12-.23l2.3 1.33.26-.41c.09-.14.17-.29.25-.44l.23-.42-2.42-1.4c.07-.21.14-.43.19-.66h2.78l.02-.73-.02-.74zm-1.42.59c0 .85-.41 1.61-.85 2.42-.41.76-.83 1.55-1 2.51h-1.69c-.17-.96-.59-1.75-1.01-2.52-.43-.8-.84-1.56-.84-2.41 0-.72.28-1.4.79-1.91 1.02-1.01 2.79-1.01 3.81 0 .51.51.79 1.19.79 1.91z" fill="#fff"/></svg>