<svg xmlns="http://www.w3.org/2000/svg" width="311" height="117" viewBox="0 0 311 117"><title>Fill 1 Copy</title><path d="M108.52 53.76c0 29.69-24.07 53.76-53.76 53.76C25.07 107.52 1 83.45 1 53.76 1 24.07 25.07 0 54.76 0c29.69 0 53.76 24.07 53.76 53.76z" fill="#50e3c2"/><path d="M3.92 34C1.39 40.23 0 47.04 0 54.18c0 29.69 24.07 53.76 53.76 53.76 12.66 0 24.29-4.38 33.48-11.71 9.19 7.33 20.82 11.71 33.48 11.71 6.65 0 13.02-1.22 18.89-3.43z" fill="#aaf1e0"/><path d="M121.16.01c-.12 0-.24-.01-.36-.01-12.66 0-24.29 4.38-33.48 11.7C78.13 4.38 66.5 0 53.84 0 31.29 0 11.98 13.89 4 33.58l135.69 70.51c5.07-1.9 9.78-4.54 13.98-7.8 9.09 7.04 20.49 11.22 32.87 11.22 1.22 0 2.43-.05 3.62-.13z" fill="#89ebd4"/><path d="M190 107.38c10.33-.68 19.85-4.29 27.77-9.99l11.88-93.41c-4.1 1.68-7.96 3.84-11.48 6.43C209.27 3.87 198.27 0 186.38 0 174 0 162.6 4.19 153.51 11.22 144.51 4.26 133.24.09 121 .01z" fill="#69e5c8"/><path d="M229.34 4C209.78 12.04 196 31.28 196 53.74c0 17.61 8.46 33.23 21.54 43.04z" fill="#5ed1b3"/><path d="M171.52 53.76c0 29.69-24.07 53.76-53.76 53.76C88.07 107.52 64 83.45 64 53.76 64 24.07 88.07 0 117.76 0c29.69 0 53.76 24.07 53.76 53.76" fill="#50e3c2"/><path d="M240.52 53.76c0 29.69-24.07 53.76-53.76 53.76-29.69 0-53.76-24.07-53.76-53.76C133 24.07 157.07 0 186.76 0c29.69 0 53.76 24.07 53.76 53.76z" fill="#50e3c2"/><path d="M296.79 27c4.6 7.93 7.24 17.13 7.24 26.96 0 29.71-24.09 53.79-53.79 53.79-11.91 0-22.91-3.87-31.82-10.42-8.91 6.55-19.91 10.42-31.81 10.42-15.67 0-29.78-6.71-39.61-17.4 9.36 15.82 26.59 26.42 46.3 26.42 11.89 0 22.89-3.86 31.79-10.41 8.91 6.55 19.9 10.41 31.79 10.41 29.69 0 53.76-24.06 53.76-53.75 0-13.86-5.24-26.49-13.85-36.02" fill="#269175"/><path d="M68.98 68.75H53.56c-.54 0-.8-.08-.8-.31 0-.16.26-.39.53-.55 5.36-2.19 10.17-4.23 14.19-6.43-.31-2.36-.48-4.77-.48-7.21 0-8.1 1.79-15.77 5-22.66C67.32 28.77 60.79 27 52.76 27 35.77 27 26.4 35.07 26.4 44.63c0 3.13 0 3.44 1.61 3.52l20.73.55c.54 0 1.07-.24 1.07-.63 0-2.35 1.61-4.62 3.48-4.62 1.34 0 1.87.7 1.87 1.8 0 6.58-17.92 12.22-27.82 21.15-.94.86-1.34 1.73-1.34 2.35v15.67c0 .31.67.55 1.2.55h49.44c-3.4-4.88-6.02-10.35-7.66-16.22M123.64 66.42c0 2.27-2.67 2.27-3.48 2.27-.53 0-.8-.15-.8-.62V42.06c0-.47.27-.71.8-.71.67 0 1.74.24 2.28.47.8.39 1.2 1.02 1.2 1.81zm14.87-36.38c-5.57-2.65-12.93-4.04-21.82-4.04H92.74c-1.07 0-1.74.55-1.74 1.18v56.63c0 .55.54.94 1.61.94h25.01c9.02 0 16.42-1.76 21.9-4.8-4.24-7.69-6.65-16.52-6.65-25.92 0-8.62 2.03-16.77 5.64-23.99z" fill="#fff"/><path d="M303.52 53.76c0 29.69-24.07 53.76-53.76 53.76-29.69 0-53.76-24.07-53.76-53.76C196 24.07 220.07 0 249.76 0c29.69 0 53.76 24.07 53.76 53.76" fill="#40b69b"/><path d="M196.37 54.25c0-8.87 2.15-17.24 5.95-24.61-4.42-1.71-10-2.64-16.36-2.64-26.89 0-26.89 12.53-26.89 18.33 0 .39.27.63 1.07.63l22.21.54c.93 0 1.47-.39 1.47-.78 0-3.52 0-3.92 2.14-3.92s2.14.48 2.14 5.02c0 1.25-2.14 2.27-5.35 2.27-5.89 0-6.56 0-6.56 1.17v9.25c0 .86.67.86 6.56.86 5.35 0 5.35 1.25 5.35 6.97 0 1.02-1.07 1.57-2.14 1.57-2.14 0-2.14-.47-2.14-5.01 0-.4-.27-.63-.94-.63l-24.08.55c-.8 0-.8.47-.8 3.84 0 10.02 11.5 17.31 27.96 17.31 7.01 0 13.08-1.31 17.76-3.57-4.67-7.97-7.35-17.25-7.35-27.15M253.64 43.63c0-.79-.4-1.42-1.2-1.81-.54-.23-1.61-.47-2.28-.47-.53 0-.8.24-.8.71v26.01c0 .47.27.62.8.62.81 0 3.48 0 3.48-2.27zm-31.03 41.12c-1.07 0-1.61-.39-1.61-.94V27.17c0-.62.67-1.17 1.74-1.17h23.95c21.27 0 33.84 7.91 33.84 22.17v14.57c0 12.69-12.17 22.01-32.91 22.01z" fill="#fff"/></svg>